<svg t="1628574455868" class="icon" viewBox="0 0 1144 1024" version="1.1" xmlns="http://www.w3.org/2000/svg" p-id="1355" width="200" height="200"><path d="M345.516443 813.952641l-275.838988-275.838988a243.809524 243.809524 0 0 1 337.144204-352.108468L414.47619 193.314918a243.809524 243.809524 0 0 1 344.798736 344.798735L483.435938 813.952641a97.52381 97.52381 0 0 1-137.919495 0z" fill="#F03535" opacity=".423" p-id="1356"></path><path d="M345.526857 779.459048L92.647619 526.628571a227.57181 227.57181 0 0 1 314.709333-328.655238l7.119238 6.826667a227.57181 227.57181 0 1 1 321.828572 321.828571l-252.879238 252.830477a97.52381 97.52381 0 0 1-137.898667 0z" fill="#FFEEEE" fill-opacity=".667" p-id="1357"></path></svg>